<?xml version="1.0" encoding="UTF-8"?>
<!DOCTYPE svg PUBLIC "-//W3C//DTD SVG 1.1//EN" "http://www.w3.org/Graphics/SVG/1.1/DTD/svg11.dtd">
<svg xmlns="http://www.w3.org/2000/svg" version="1.1" width="225px" height="225px" style="shape-rendering:geometricPrecision; text-rendering:geometricPrecision; image-rendering:optimizeQuality; fill-rule:evenodd; clip-rule:evenodd" xmlns:xlink="http://www.w3.org/1999/xlink">
<g><path style="opacity:1" fill="#2d93d1" d="M -0.5,-0.5 C 74.5,-0.5 149.5,-0.5 224.5,-0.5C 224.5,74.5 224.5,149.5 224.5,224.5C 149.5,224.5 74.5,224.5 -0.5,224.5C -0.5,149.5 -0.5,74.5 -0.5,-0.5 Z"/></g>
<g><path style="opacity:1" fill="#f9fcfc" d="M 59.5,66.5 C 68.4775,66.3098 72.3108,70.6431 71,79.5C 68.3674,84.7315 64.2008,86.5649 58.5,85C 52.0427,81.1083 50.8761,75.9416 55,69.5C 56.6516,68.6006 58.1516,67.6006 59.5,66.5 Z"/></g>
<g><path style="opacity:1" fill="#f9fcfc" d="M 108.5,66.5 C 118.666,66.8183 122.5,71.8183 120,81.5C 116.604,85.2027 112.437,86.3694 107.5,85C 100.612,78.3971 100.946,72.2305 108.5,66.5 Z"/></g>
<g><path style="opacity:1" fill="#f9fcfc" d="M 158.5,66.5 C 169.127,66.4471 172.96,71.4471 170,81.5C 166.604,85.2027 162.437,86.3694 157.5,85C 150.621,78.3498 150.955,72.1831 158.5,66.5 Z"/></g>
<g><path style="opacity:1" fill="#f8fbfc" d="M 35.5,79.5 C 36.8734,79.3433 38.2068,79.51 39.5,80C 46.7954,86.9747 54.462,93.4747 62.5,99.5C 70.0213,93.235 77.3546,86.735 84.5,80C 86.1667,79.3333 87.8333,79.3333 89.5,80C 96.7046,86.8734 104.205,93.3734 112,99.5C 119.795,93.3734 127.295,86.8734 134.5,80C 136.167,79.3333 137.833,79.3333 139.5,80C 146.705,86.8734 154.205,93.3734 162,99.5C 169.795,93.3734 177.295,86.8734 184.5,80C 190.228,79.5524 191.561,81.7191 188.5,86.5C 181.5,92.6667 174.5,98.8333 167.5,105C 184.469,123.682 183.136,141.015 163.5,157C 162.5,157.667 161.5,157.667 160.5,157C 140.849,140.866 139.516,123.533 156.5,105C 150.282,99.1111 143.782,93.6111 137,88.5C 130.218,93.6111 123.718,99.1111 117.5,105C 134.896,124.538 133.063,142.038 112,157.5C 90.949,141.932 89.1157,124.432 106.5,105C 100.293,99.1245 93.7934,93.6245 87,88.5C 81.2921,93.8767 75.2921,98.8767 69,103.5C 68.3333,104.5 68.3333,105.5 69,106.5C 80.9781,118.553 82.6448,131.886 74,146.5C 70.9489,151.053 67.1155,154.719 62.5,157.5C 47.9045,148.301 42.7378,135.301 47,118.5C 49.6778,113.812 52.8444,109.479 56.5,105.5C 49.1768,98.3446 41.6768,91.3446 34,84.5C 33.3872,82.5048 33.8872,80.8381 35.5,79.5 Z"/></g>
<g><path style="opacity:1" fill="#2f93d0" d="M 61.5,110.5 C 72.0825,117.758 74.9158,127.425 70,139.5C 67.6586,142.671 65.1586,145.671 62.5,148.5C 49.5812,136.094 49.2478,123.427 61.5,110.5 Z"/></g>
<g><path style="opacity:1" fill="#3294d1" d="M 110.5,110.5 C 125.961,122.327 126.461,134.993 112,148.5C 98.8424,136.264 98.3424,123.597 110.5,110.5 Z"/></g>
<g><path style="opacity:1" fill="#3294d1" d="M 160.5,110.5 C 175.963,122.341 176.463,135.008 162,148.5C 155.985,142.971 152.485,136.138 151.5,128C 151.952,124.591 153.119,121.424 155,118.5C 157.054,115.953 158.887,113.286 160.5,110.5 Z"/></g>
</svg>
